<?xml version="1.0" standalone="no"?>
<!DOCTYPE svg PUBLIC "-//W3C//DTD SVG 20010904//EN"
 "http://www.w3.org/TR/2001/REC-SVG-20010904/DTD/svg10.dtd">
<svg version="1.0" xmlns="http://www.w3.org/2000/svg"
 width="240.000000pt" height="240.000000pt" viewBox="0 0 240.000000 240.000000"
 preserveAspectRatio="xMidYMid meet">

<g transform="translate(0.000000,240.000000) scale(0.100000,-0.100000)"
fill="#000000" stroke="none">
<path d="M383 2386 c-181 -44 -334 -202 -372 -384 -15 -74 -15 -1530 0 -1604
39 -187 200 -348 387 -387 74 -15 1530 -15 1604 0 187 39 348 200 387 387 15
74 15 1530 0 1604 -39 187 -200 348 -387 387 -79 16 -1549 14 -1619 -3z m348
-329 c58 -31 89 -84 89 -155 0 -64 -18 -102 -67 -139 -31 -24 -46 -28 -103
-28 -57 0 -72 4 -103 28 -49 37 -67 75 -67 139 0 71 31 124 89 155 56 29 106
29 162 0z m69 -1007 l0 -550 -150 0 -150 0 0 550 0 550 150 0 150 0 0 -550z
m500 467 l0 -83 58 57 c80 78 146 103 272 103 82 1 103 -3 151 -25 109 -51
174 -134 204 -260 12 -51 15 -139 15 -436 l0 -373 -149 0 -150 0 -3 323 c-3
315 -4 323 -27 370 -12 26 -39 60 -59 75 -31 24 -44 27 -108 27 -66 0 -76 -3
-111 -31 -21 -17 -49 -51 -63 -75 l-25 -44 -3 -322 -3 -323 -150 0 -149 0 0
550 0 550 150 0 150 0 0 -83z"/>
</g>
</svg>
